<svg width="32" height="32" viewBox="0 0 32 32" fill="none" xmlns="http://www.w3.org/2000/svg">
<path d="M24.1355 31.9995C23.8055 30.9195 23.4305 29.8095 23.0105 28.6695C22.6205 27.5295 22.2305 26.3895 21.8405 25.2495H9.69048C9.30048 26.3895 8.89547 27.5295 8.47547 28.6695C8.08547 29.8095 7.72547 30.9195 7.39547 31.9995H0.105469C1.27547 28.6395 2.38547 25.5345 3.43547 22.6845C4.48547 19.8345 5.50548 17.1495 6.49548 14.6295C7.51548 12.1095 8.50547 9.72445 9.46547 7.47445C10.4555 5.19445 11.4755 2.97445 12.5255 0.814453H19.2305C20.2505 2.97445 21.2555 5.19445 22.2455 7.47445C23.2355 9.72445 24.2255 12.1095 25.2155 14.6295C26.2355 17.1495 27.2705 19.8345 28.3205 22.6845C29.3705 25.5345 30.4805 28.6395 31.6505 31.9995H24.1355ZM15.7205 7.87945C15.5705 8.32945 15.3455 8.94445 15.0455 9.72445C14.7455 10.5045 14.4005 11.4045 14.0105 12.4245C13.6205 13.4445 13.1855 14.5695 12.7055 15.7995C12.2555 17.0295 11.7905 18.3195 11.3105 19.6695H20.1755C19.6955 18.3195 19.2305 17.0295 18.7805 15.7995C18.3305 14.5695 17.8955 13.4445 17.4755 12.4245C17.0855 11.4045 16.7405 10.5045 16.4405 9.72445C16.1405 8.94445 15.9005 8.32945 15.7205 7.87945Z" fill="#14C4B2"/>
</svg>
