<svg width="27" height="33" viewBox="0 0 27 33" fill="none" xmlns="http://www.w3.org/2000/svg">
<path d="M15.82 32.6307C10.75 32.6307 6.88 31.2207 4.21 28.4007C1.57 25.5807 0.25 21.5757 0.25 16.3857C0.25 13.8057 0.655 11.5107 1.465 9.50071C2.275 7.46071 3.385 5.7507 4.795 4.3707C6.205 2.9607 7.885 1.8957 9.835 1.1757C11.785 0.455703 13.9 0.0957031 16.18 0.0957031C17.5 0.0957031 18.7 0.200704 19.78 0.410705C20.86 0.590704 21.805 0.815704 22.615 1.0857C23.425 1.3257 24.1 1.58071 24.64 1.85071C25.18 2.12071 25.57 2.33071 25.81 2.48071L23.785 8.1507C22.825 7.6407 21.7 7.2057 20.41 6.84571C19.15 6.4857 17.71 6.3057 16.09 6.3057C15.01 6.3057 13.945 6.4857 12.895 6.84571C11.875 7.2057 10.96 7.7907 10.15 8.6007C9.37 9.3807 8.74 10.4007 8.26 11.6607C7.78 12.9207 7.54 14.4507 7.54 16.2507C7.54 17.6907 7.69 19.0407 7.99 20.3007C8.32 21.5307 8.83 22.5957 9.52 23.4957C10.24 24.3957 11.17 25.1157 12.31 25.6557C13.45 26.1657 14.83 26.4207 16.45 26.4207C17.47 26.4207 18.385 26.3607 19.195 26.2407C20.005 26.1207 20.725 25.9857 21.355 25.8357C21.985 25.6557 22.54 25.4607 23.02 25.2507C23.5 25.0407 23.935 24.8457 24.325 24.6657L26.26 30.2907C25.27 30.8907 23.875 31.4307 22.075 31.9107C20.275 32.3907 18.19 32.6307 15.82 32.6307Z" fill="#14C4B2"/>
</svg>
