<svg width="27" height="32" viewBox="0 0 27 32" fill="none" xmlns="http://www.w3.org/2000/svg">
<path d="M10.0598 0.455078C14.7398 0.455078 18.3248 1.29508 20.8148 2.97508C23.3048 4.62508 24.5498 7.20508 24.5498 10.7151C24.5498 12.9051 24.0398 14.6901 23.0198 16.0701C22.0298 17.4201 20.5898 18.4851 18.6998 19.2651C19.3298 20.0451 19.9898 20.9451 20.6798 21.9651C21.3698 22.9551 22.0448 24.0051 22.7048 25.1151C23.3948 26.1951 24.0548 27.3351 24.6848 28.5351C25.3148 29.7051 25.8998 30.8601 26.4398 32.0001H18.5648C17.9948 30.9801 17.4098 29.9451 16.8098 28.8951C16.2398 27.8451 15.6398 26.8251 15.0098 25.8351C14.4098 24.8451 13.8098 23.9151 13.2098 23.0451C12.6098 22.1451 12.0098 21.3351 11.4098 20.6151H7.94479V32.0001H0.924805V1.26508C2.4548 0.965079 4.0298 0.755079 5.6498 0.635078C7.2998 0.515078 8.7698 0.455078 10.0598 0.455078ZM10.4648 6.44008C9.9548 6.44008 9.48979 6.45508 9.06979 6.48508C8.67979 6.51508 8.30479 6.54508 7.94479 6.57508V15.0351H9.9248C12.5648 15.0351 14.4548 14.7051 15.5948 14.0451C16.7348 13.3851 17.3048 12.2601 17.3048 10.6701C17.3048 9.14008 16.7198 8.06008 15.5498 7.43008C14.4098 6.77008 12.7148 6.44008 10.4648 6.44008Z" fill="#14C4B2"/>
</svg>
