<svg width="32" height="32" viewBox="0 0 32 32" fill="none" xmlns="http://www.w3.org/2000/svg">
<path d="M12.8116 31.9995C11.5816 29.3895 10.3666 26.6745 9.1666 23.8545C7.9666 21.0345 6.8266 18.2445 5.7466 15.4845C4.6666 12.7245 3.6616 10.0845 2.7316 7.56445C1.8316 5.04445 1.0516 2.79445 0.391602 0.814453H8.1316C8.7316 2.61445 9.3766 4.56445 10.0666 6.66445C10.7866 8.73445 11.5066 10.8045 12.2266 12.8745C12.9766 14.9445 13.6966 16.9245 14.3866 18.8145C15.0766 20.7045 15.7216 22.3395 16.3216 23.7195C16.8916 22.3395 17.5216 20.7045 18.2116 18.8145C18.9316 16.9245 19.6516 14.9445 20.3716 12.8745C21.1216 10.8045 21.8416 8.73445 22.5316 6.66445C23.2516 4.56445 23.9116 2.61445 24.5116 0.814453H31.9816C31.2916 2.79445 30.4966 5.04445 29.5966 7.56445C28.6966 10.0845 27.7066 12.7245 26.6266 15.4845C25.5466 18.2445 24.4066 21.0345 23.2066 23.8545C22.0066 26.6745 20.7916 29.3895 19.5616 31.9995H12.8116Z" fill="#14C4B2"/>
</svg>
